<?xml version="1.0" standalone="no"?>
<!DOCTYPE svg PUBLIC "-//W3C//DTD SVG 20010904//EN"
 "http://www.w3.org/TR/2001/REC-SVG-20010904/DTD/svg10.dtd">
<svg version="1.0" xmlns="http://www.w3.org/2000/svg"
 width="408.000000pt" height="612.000000pt" viewBox="0 0 408.000000 612.000000"
 preserveAspectRatio="xMidYMid meet">

<g transform="translate(0.000000,612.000000) scale(0.100000,-0.100000)"
fill="currentColor" stroke="none">
<path d="M1815 5134 c-24 -26 -49 -61 -56 -77 -9 -22 -17 -28 -33 -24 -112 26
-132 28 -161 17 l-30 -12 32 -26 c17 -15 55 -36 83 -47 65 -25 73 -34 59 -73
-7 -22 -7 -36 0 -51 16 -30 13 -60 -9 -88 -24 -31 -25 -49 -4 -57 9 -3 14 -12
11 -20 -9 -22 13 -159 28 -183 8 -12 30 -27 50 -34 29 -11 34 -17 29 -34 -4
-11 -14 -24 -23 -30 -26 -16 -174 -64 -198 -65 -13 0 -36 -18 -61 -47 -49 -60
-122 -181 -122 -204 0 -16 -36 -102 -64 -149 -8 -14 -35 -70 -59 -125 -49
-107 -61 -176 -47 -255 13 -72 30 -80 182 -80 l130 0 -9 -52 c-8 -50 -9 -120
-4 -233 3 -75 -17 -263 -39 -361 -13 -57 -13 -533 0 -642 5 -46 23 -147 41
-225 17 -78 36 -178 41 -222 5 -44 11 -103 14 -131 4 -33 2 -54 -5 -58 -8 -5
-6 -16 8 -34 13 -20 18 -39 15 -67 -2 -22 -7 -66 -10 -97 -6 -59 18 -342 38
-438 12 -58 12 -69 8 -194 -1 -64 2 -83 17 -105 19 -25 19 -27 1 -45 -10 -11
-18 -25 -18 -33 0 -7 -4 -13 -8 -13 -5 0 -16 -18 -26 -40 -9 -22 -36 -56 -58
-77 -23 -21 -50 -47 -62 -58 -11 -11 -50 -31 -86 -45 -81 -32 -101 -62 -73
-111 l18 -31 139 6 c77 4 167 13 200 20 34 8 100 20 148 26 48 7 93 17 100 21
21 13 16 336 -7 395 -19 49 -18 80 5 283 8 68 10 170 6 295 -9 245 -9 325 -2
411 3 39 8 133 9 210 4 132 30 295 47 295 8 0 16 -56 35 -268 8 -84 26 -198
40 -254 17 -65 23 -112 19 -134 -4 -23 -1 -42 10 -59 11 -16 16 -47 16 -94 0
-39 9 -134 20 -213 11 -79 24 -188 29 -243 5 -55 14 -111 19 -125 8 -20 4 -38
-19 -90 l-29 -64 21 -80 c16 -60 22 -114 23 -206 1 -123 1 -124 26 -131 42
-12 142 -9 195 4 62 16 76 44 56 110 -7 23 -17 69 -22 102 -5 33 -12 68 -15
77 -3 9 4 25 16 36 18 17 19 20 5 32 -8 7 -15 23 -15 37 0 13 -7 35 -16 49
-15 23 -15 28 -1 62 23 54 26 76 39 312 14 256 12 338 -7 404 -8 27 -15 76
-15 107 0 32 -3 60 -8 62 -15 10 6 456 26 552 6 28 15 94 21 147 6 53 16 109
23 125 6 15 10 33 8 38 -1 6 -2 53 -1 105 1 52 -3 126 -9 163 -6 37 -7 73 -3
80 4 7 8 55 10 107 1 52 5 151 8 220 6 113 4 138 -21 255 -29 137 -30 143 -16
245 9 69 25 113 54 145 31 36 58 178 65 342 l6 151 -51 54 c-39 40 -70 61
-132 88 -83 35 -98 50 -110 105 -6 29 -7 30 -65 30 l-59 0 -7 35 c-10 44 6
115 31 148 11 13 20 35 20 47 0 14 7 25 20 28 15 4 19 13 18 39 -1 19 2 40 6
46 8 14 -30 159 -51 192 -9 14 -40 48 -68 75 -37 37 -59 50 -80 51 -17 0 -70
4 -118 8 l-88 8 -44 -48z"/>
</g>
</svg>
