<svg version="1.0" xmlns="http://www.w3.org/2000/svg"
     width="171" height="181" viewBox="0 0 171 181"
     preserveAspectRatio="xMidYMid meet"
     class="about-svg">
  <g transform="translate(0,181) scale(0.1,-0.1)"
     fill="currentColor"> 
    <path d="M800 1559 c-61 -21 -201 -128 -231 -176 -32 -51 -51 -146 -46 -241 2
    -48 7 -97 12 -110 6 -18 4 -21 -8 -16 -10 3 -20 -2 -26 -15 -13 -24 -14 -167
    -2 -207 5 -16 12 -41 15 -56 5 -22 12 -28 32 -28 27 0 27 1 42 -84 7 -33 21
    -77 32 -98 14 -27 20 -58 20 -104 0 -62 -1 -66 -31 -82 -67 -37 -68 -39 -30
    -71 74 -64 236 -123 255 -92 9 14 152 15 161 1 12 -19 67 -10 138 24 98 47
    125 69 108 90 -18 21 -4 187 20 243 10 24 24 70 31 104 9 45 18 63 33 69 24 9
    39 48 59 161 17 88 12 132 -15 141 -9 3 -9 16 1 57 16 69 8 168 -20 246 -18
    47 -37 74 -89 125 -37 36 -93 81 -126 100 -57 34 -63 35 -170 37 -88 2 -121
    -2 -165 -18z"/>
  </g>
</svg>